<svg height="54" viewBox="0 0 300 54" width="300" xmlns="http://www.w3.org/2000/svg"><g fill="#5271ff"><path d="m20 40c3.5845214 0 6.7617108-.5737705 8.9205703-1.6803279 2.1588594-1.1065573 3.4215886-2.6639344 3.4215886-4.4672131 0-1.1885246-.4887984-2.4180328-1.2627292-3.2786885-.8961303-.942623-1.9551934-1.4344262-3.1771894-1.4344262-.7739307 0-1.6700611.2868852-2.6476578.8606557-1.4663951.8606557-2.8513238 1.2704918-5.2545825 1.2704918-2.2810591 0-4.3177189-.6557377-6.1099796-2.0081967-1.8329939-1.352459-3.095723-3.0737705-3.7881874-5.1229508h25.4582485c2.6069246 0 4.4399185-1.7213115 4.4399185-4.3442623-.1221996-5.3688525-2.3625255-10.4098361-5.98778-14.01639348-3.706721-3.64754098-8.6761711-5.77868852-14.01222-5.77868852-5.3767821 0-10.42769857 2.21311475-14.13441955 5.86065574-3.70672098 3.64754098-5.86558045 8.72950816-5.86558045 14.18032786 0 5.4098361 2.15885947 10.4508197 5.86558045 14.0983607 3.70672098 3.6475409 8.75763745 5.8606557 14.13441955 5.8606557zm-10.18329939-23.4836066c.61099799-2.1721311 1.91446029-4.2213114 3.70672099-5.5737704 1.9144603-1.51639349 4.1547861-2.25409841 6.6395112-2.25409841 2.5661914 0 4.8065173.73770492 6.7209776 2.17213111 1.8329939 1.4344263 3.1771894 3.4016394 3.8289206 5.6557377z" transform="translate(43 14)"/><path d="m4.63414634 39c1.16861082 0 2.29692471-.4849741 3.1028632-1.2932642.84623542-.8487047 1.24920467-1.8590674 1.24920467-3.1119171v-15.4787565c0-2.7481866 1.04772009-5.3751296 2.82078469-7.1937824 1.8133617-1.8186529 4.2714741-2.90984457 7.0519619-2.90984457 2.6998939 0 5.2386002 1.09119167 7.1325556 2.99067357 1.8939555 1.8186529 3.0222694 4.4051814 3.0625663 7.1533679v15.438342c0 1.2528497.4432662 2.2632124 1.3700955 3.1119171.8462354.8487046 1.9342523 1.2932642 3.183457 1.2932642s2.2969247-.4445596 3.1431601-1.2932642c.8462355-.8487047 1.2492047-1.8590674 1.2492047-3.1119171v-15.4787565c0-5.173057-2.0551432-9.98238344-5.6012725-13.53886013-3.5058325-3.51606217-8.3414634-5.57720207-13.5397667-5.57720207s-9.91304351 2.02072539-13.33828211 5.57720207c-3.50583245 3.55647669-5.52067869 8.32538863-5.52067869 13.53886013v15.4787565c0 1.2124352.4835631 2.2632124 1.41039236 3.1119171.8059385.8082901 1.97454932 1.2932642 3.22375398 1.2932642z" transform="translate(0 15)"/><path d="m20 40c3.5845214 0 6.7617108-.5737705 8.9205703-1.6803279 2.1588594-1.1065573 3.4215886-2.6639344 3.4215886-4.4672131 0-1.1885246-.4887984-2.4180328-1.2627292-3.2786885-.8961303-.942623-1.9551934-1.4344262-3.1771894-1.4344262-.7739307 0-1.6700611.2868852-2.6476578.8606557-1.4663951.8606557-2.8513238 1.2704918-5.2545825 1.2704918-2.2810591 0-4.3177189-.6557377-6.1099796-2.0081967-1.8329939-1.352459-3.095723-3.0737705-3.7881874-5.1229508h25.4582485c2.6069246 0 4.4399185-1.7213115 4.4399185-4.3442623-.1221996-5.3688525-2.3625255-10.4098361-5.98778-14.01639348-3.706721-3.64754098-8.6761711-5.77868852-14.01222-5.77868852-5.3767821 0-10.42769857 2.21311475-14.13441955 5.86065574-3.70672098 3.64754098-5.86558045 8.72950816-5.86558045 14.18032786 0 5.4098361 2.15885947 10.4508197 5.86558045 14.0983607 3.70672098 3.6475409 8.75763745 5.8606557 14.13441955 5.8606557zm-10.18329939-23.4836066c.61099799-2.1721311 1.91446029-4.2213114 3.70672099-5.5737704 1.9144603-1.51639349 4.1547861-2.25409841 6.6395112-2.25409841 2.5661914 0 4.8065173.73770492 6.7209776 2.17213111 1.8329939 1.4344263 3.1771894 3.4016394 3.8289206 5.6557377z" transform="translate(224 14)"/><path d="m19.5 40c3.8919753 0 7.5030864-1.1065574 10.7530864-3.3196721.521605 1.9672131 2.1265432 3.2377049 4.212963 3.2377049 1.2839506 0 2.3672839-.4508197 3.2098765-1.3934426.8827161-.9016394 1.3240741-2.0081968 1.3240741-3.2786886v-15.204918c0-5.4508197-2.1265432-10.45081967-5.6975309-14.18032786-3.6512345-3.7295082-8.5061728-5.86065574-13.8024691-5.86065574-5.2561728 0-10.19135802 2.21311475-13.76234568 5.86065574-3.57098765 3.72950819-5.73765432 8.77049176-5.73765432 14.18032786s2.08641975 10.3688525 5.73765432 14.0983607c3.57098766 3.6475409 8.50617288 5.8606557 13.76234568 5.8606557zm0-9.0983607c-2.8888889 0-5.537037-1.1885245-7.462963-3.1967213-1.9660493-2.0081967-3.08950614-4.7131147-3.08950614-7.6639344s1.12345684-5.6557377 3.08950614-7.6639344c1.9660494-2.0081967 4.6141976-3.15573772 7.462963-3.15573772 2.8888889 0 5.617284 1.18852462 7.5432099 3.15573772 1.9259259 2.0081967 3.0493827 4.7131147 3.0493827 7.6639344s-1.1234568 5.6557377-3.0493827 7.6639344c-1.9660494 2.0081968-4.654321 3.1967213-7.5432099 3.1967213z" transform="translate(87 14)"/><path d="m4.53821656 39c1.1544586 0 2.26910828-.4849741 3.06528662-1.2932642.83598727-.8891192 1.23407644-1.9398964 1.23407644-3.1523317v-14.1450777c.03980892-3.1119171 1.35350318-5.9409326 3.46337578-8.0829015 2.1098726-2.1015544 4.9363057-3.35440417 7.9219745-3.39481868h.1990446c1.2738854 0 2.3487261-.44455959 3.2643312-1.29326425.7961784-.80829016 1.3136943-1.93989637 1.3136943-3.19274612 0-2.626943-1.7117834-4.44559585-4.5780255-4.44559585h-.0796178c-5.4538217 0-10.54936307 2.22279793-14.3312102 6.06217617-3.78184714 3.83937823-6.0111465 9.09326423-6.0111465 14.63005183v13.8621761c0 1.2528498.43789809 2.303627 1.35350318 3.1523317.9156051.8487046 1.95063695 1.2932642 3.18471338 1.2932642z" transform="translate(134 15)"/><path d="m20.0409836 54c5.3688525 0 10.4508197-2.1924812 14.0983607-5.806015 3.7295082-3.6947369 5.8606557-8.6075188 5.8606557-13.9669173s-2.2131148-10.3533835-5.8606557-14.0481203c-3.647541-3.6135339-8.7295082-5.8060151-14.0983607-5.8060151-2.1311475 0-4.2622951.5278196-6.3934426 1.5834587-2.090164 1.0962406-3.6065574 2.3954887-4.54918034 3.9789473v-15.26616537c0-1.33984962-.40983607-2.43609022-1.27049181-3.32932331-.90163934-.89323308-1.96721311-1.33984962-3.23770492-1.33984962-1.2704918 0-2.37704918.44661654-3.27868852 1.33984962-.86065574.93383459-1.31147541 2.03007519-1.31147541 3.32932331v29.55789477c0 5.3593985 2.17213115 10.3533834 5.90163934 13.9669173 3.7295082 3.6947368 8.72950816 5.806015 14.13934426 5.806015zm0-9.0541353c-2.9508197 0-5.7377049-1.1774436-7.704918-3.1263158-2.0081967-1.9894737-3.19672134-4.669173-3.19672134-7.5924812 0-2.9233083 1.18852464-5.6030075 3.19672134-7.5924812 1.9672131-1.9488722 4.7540983-3.1263158 7.704918-3.1263158s5.7377049 1.1774436 7.704918 3.1263158c2.0081968 1.9894737 3.1557377 4.6691729 3.1557377 7.5924812 0 2.9233082-1.1475409 5.6030075-3.1557377 7.5924812-1.9672131 1.9488722-4.7540983 3.1263158-7.704918 3.1263158z" transform="translate(163)"/><path d="m5 9.78647416c1.31147541 0 2.58196721-.52355623 3.52459016-1.44984802.98360656-.96656535 1.47540984-2.13449848 1.47540984-3.46352584 0-1.2887538-.53278689-2.53723404-1.47540984-3.46352583s-2.17213114-1.40957447-3.52459016-1.40957447c-1.39344262 0-2.58196721.48328268-3.52459016 1.40957447s-1.47540984 2.17477203-1.47540984 3.46352583c0 1.32902736.49180328 2.49696049 1.47540984 3.46352584.98360655.96656535 2.17213114 1.44984802 3.52459016 1.44984802zm0 43.21352584c1.2704918 0 2.33606557-.4430091 3.19672131-1.2887538s1.31147541-1.8928571 1.31147541-3.1413374v-30.3259878c0-1.1679332-.49180328-2.3358663-1.2704918-3.1413374-.90163935-.8860183-1.96721312-1.3290274-3.19672131-1.3290274-1.27049181 0-2.4590164.5235563-3.27868853 1.3290274-.86065574.8054711-1.39344262 1.9734042-1.39344262 3.1413374v30.3259878c0 1.2484803.45081967 2.2955927 1.39344262 3.1413374.86065574.8457447 1.96721312 1.2887538 3.23770492 1.2887538z" transform="translate(209 1)"/><path d="m20.2828283 39c3.2727273-.0404145 6.3030303-1.3740933 8.4444444-3.6373057 2.1010101-2.2227979 3.2727273-5.2134715 3.2727273-8.4062176s-1.2525253-6.3046632-3.3535354-8.5678757c-2.1414141-2.3036269-5.1717171-3.6777202-8.5252525-3.6777202h-7.6363636c-1.4949495 0-2.82828284-1.1316062-2.82828284-2.86943 0-1.5761658 1.25252524-2.86943007 2.82828284-2.86943007h13.3333333c1.1717172 0 2.1818182-.44455959 3.030303-1.29326425.8484849-.88911917 1.2525253-1.98031088 1.2525253-3.31398964 0-2.70777202-1.9393939-4.36476684-4.4848485-4.36476684h-13.2525252c-3.19191923 0-6.10101014 1.25284974-8.24242428 3.39481865-2.14141414 2.10155441-3.43434343 5.05181347-3.43434343 8.12331605 0 3.1927461 1.25252525 6.2238342 3.35353535 8.5274612 2.1010101 2.3036269 5.05050505 3.6777202 8.32323236 3.6777202h6.9494949c1.010101 0 1.8585859.2020725 2.5454546.6466321.7676767.5253886 1.1717171 1.2932642 1.1717171 2.3844559 0 1.0507772-.4040404 1.8590674-1.1717171 2.465285-.6868687.5253886-1.4949495.8082902-2.3838384.8082902h-15.35353538c-2.46464646 0-4.12121212 1.6974093-4.12121212 4.4051813 0 2.7481866 1.6969697 4.5668394 4.12121212 4.5668394z" transform="translate(268 15)"/></g></svg>